<svg xmlns="http://www.w3.org/2000/svg" xmlns:xlink="http://www.w3.org/1999/xlink" xml:space="preserve" version="1.1" style="shape-rendering:geometricPrecision;text-rendering:geometricPrecision;image-rendering:optimizeQuality;" viewBox="0 0 333 333" x="0px" y="0px" fill-rule="evenodd" clip-rule="evenodd"><defs><style type="text/css">
   
    .fil0 {fill:black}
   
  </style></defs><g><path class="fil0" d="M54 188l4 0 0 -28c-8,0 -17,0 -25,0l0 -19c-17,0 -13,0 -13,-41 0,-7 8,-6 13,-6l0 -21 25 0 0 -31 217 0 0 31 26 0 0 21c16,0 13,0 13,41 0,7 -9,6 -13,6l0 19 -26 0 0 28c25,0 20,16 20,46 0,6 -4,11 -9,14 14,4 11,23 -3,23l-16 0c0,24 2,20 -33,20 -10,0 -8,-12 -8,-20l-119 0c0,24 2,20 -33,20 -9,0 -7,-12 -7,-20 -11,0 -29,3 -29,-12 0,-5 4,-10 9,-11 -12,-6 -9,-25 -9,-45 0,-8 7,-15 16,-15zm24 -131l177 0 0 63 -177 0 0 -63zm-20 96l0 -73 -19 0 0 14c17,0 13,0 13,41 0,7 -8,6 -13,6l0 12 19 0zm217 -73l0 73 19 0 0 -12c-17,0 -13,0 -13,-41 0,-7 8,-6 13,-6l0 -14 -19 0zm-218 172c8,0 8,13 0,13 -8,0 -8,-13 0,-13zm29 0c8,0 8,13 0,13 -8,0 -8,-13 0,-13zm-14 0c8,0 8,13 0,13 -9,0 -9,-13 0,-13zm175 0c8,0 8,13 0,13 -8,0 -8,-13 0,-13zm29 0c9,0 9,13 0,13 -8,0 -8,-13 0,-13zm-14 0c8,0 8,13 0,13 -8,0 -8,-13 0,-13zm-209 -46l42 0 0 26 -42 0 0 -26zm185 0l43 0 0 26 -43 0 0 -26zm-122 -36l101 0 0 16 -101 0 0 -16zm0 45l101 0 0 16 -101 0 0 -16zm0 -22l101 0 0 15 -101 0 0 -15z"></path></g></svg>